<?xml version="1.0" encoding="UTF-8" standalone="no"?>
<svg
   xmlns:dc="http://purl.org/dc/elements/1.1/"
   xmlns:cc="http://creativecommons.org/ns#"
   xmlns:rdf="http://www.w3.org/1999/02/22-rdf-syntax-ns#"
   xmlns:svg="http://www.w3.org/2000/svg"
   xmlns="http://www.w3.org/2000/svg"
   id="svg18"
   xml:space="preserve"
   viewBox="0 0 1024 768"
   y="0px"
   x="0px"
   version="1.1"><metadata
     id="metadata22"><rdf:RDF><cc:Work
         rdf:about=""><dc:format>image/svg+xml</dc:format><dc:type
           rdf:resource="http://purl.org/dc/dcmitype/StillImage" /></cc:Work></rdf:RDF></metadata><style
     id="style2">
#c1 {
	transform: scale(0);
	opacity: 0;
	transform-origin: 50% 50%;
	animation: pulse 4s cubic-bezier(.5,.5,0,1);	
}

#c2 {
	transform: scale(0);
	opacity: 0;
	transform-origin: 50% 50%;
	animation: pulse 4s 0.75s cubic-bezier(.5,.5,0,1);
}

#c3 {
	transform: scale(0);
	opacity: 0;
	transform-origin: 50% 50%;
	animation: pulse 4s 1.5s cubic-bezier(.5,.5,0,1);
}

@keyframes pulse {
	
	12% {
		opacity: 0.3;
	}
	
	50% {
		transform: scale(1);
	}
	
	100% {
		transform: scale(1);
	}
	
}
</style><defs
     id="defs6"><clipPath
       id="clip-path"><rect
         y="0"
         x="0"
         height="100"
         width="1024"
         id="clip" /></clipPath></defs><circle
     fill="none"
     stroke-width="10"
     stroke="#238651"
     r="370"
     cy="384"
     cx="512"
     id="c1" /><circle
     fill="none"
     stroke-width="10"
     stroke="#257c4d"
     r="370"
     cy="384"
     cx="512"
     id="c2" /><circle
     fill="none"
     stroke-width="10"
     stroke="#277249"
     r="370"
     cy="384"
     cx="512"
     id="c3" /><g
     id="fade"><g
       style="fill:#229056;stroke-width:0;stroke-miterlimit:2"
       transform="matrix(1.7412,0,0,1.7412,-379.5,-284.62)"
       stroke-miterlimit="2"
       id="logo-group"><path
         d="m 433.95,357.43 c -7.632,-7.632 -17.856,-11.808 -28.512,-11.808 -10.8,0 -21.024,4.176 -28.656,11.808 -7.632,7.632 -11.808,17.712 -11.808,28.512 0,10.8 4.176,20.88 11.808,28.512 7.632,7.632 17.856,11.808 28.656,11.808 6.336,0 12.528,-1.44 18,-4.176 -2.16,7.92 -9.504,13.68 -18,13.68 -4.896,0 -9.504,-1.872 -12.96,-5.184 l -14.976,15.696 c 7.632,7.2 17.424,11.088 27.792,11.088 10.8,0 21.024,-4.176 28.656,-11.808 7.632,-7.632 11.808,-17.712 11.808,-28.512 v -31.104 c 0,-10.8 -4.176,-20.88 -11.808,-28.512 z m -28.512,47.232 c -10.368,0 -18.864,-8.352 -18.864,-18.72 0,-10.368 8.496,-18.864 18.864,-18.864 10.368,0 18.72,8.496 18.72,18.864 0,10.368 -8.496,18.72 -18.72,18.72 z"
         style="font-variant-ligatures:normal"
         id="path17712" /><path
         d="m 459.22,426.7 h 21.744 v -83.088 l -21.744,7.2 z"
         style="font-variant-ligatures:normal"
         id="path17714" /><path
         d="m 541.6,366.65 v -20.16 h -22.896 v -25.776 l -21.6,7.2 v 55.872 c 0,6.048 1.152,11.808 3.456,17.28 2.16,5.328 5.472,10.08 9.504,14.112 4.032,4.176 8.784,7.344 14.112,9.648 5.472,2.304 11.376,3.456 17.424,3.456 v -21.6 c -12.672,0 -22.896,-10.224 -22.896,-22.896 V 366.65 Z"
         style="font-variant-ligatures:normal"
         id="path17716" /><path
         d="m 550.41,426.7 h 21.744 V 310.63 l -21.744,7.2 z"
         style="font-variant-ligatures:normal"
         id="path17718" /><path
         d="m 592.35,455.21 h 22.896 l 43.776,-108.72 h -23.04 l -18.144,45.504 -19.296,-45.504 h -23.76 l 32.112,72.576 z"
         style="font-variant-ligatures:normal"
         id="path17720" /></g></g></svg>